<svg width="42" height="42" viewBox="0 0 42 42" fill="none" xmlns="http://www.w3.org/2000/svg">
<path d="M18.375 28.8037C17.465 28.7028 16.5699 28.4958 15.708 28.1869C15.7343 27.5674 15.75 26.9216 15.75 26.2496V25.365C16.5637 25.7535 17.4484 26.0239 18.375 26.1577V19.6871C18.375 18.6428 18.7898 17.6413 19.5283 16.9029C20.2667 16.1645 21.2682 15.7496 22.3125 15.7496H28.7831C28.5738 14.2951 28.0186 12.912 27.1641 11.7164C26.3097 10.5208 25.1809 9.54759 23.8725 8.87849C22.5642 8.20939 21.1144 7.8639 19.6448 7.87101C18.1753 7.87812 16.729 8.23764 15.4271 8.91937C15.2195 8.06082 14.8775 7.24046 14.4139 6.48862C16.1156 5.63924 17.9972 5.21331 19.8988 5.24705C21.8004 5.2808 23.6658 5.7732 25.3363 6.68242C27.0068 7.59164 28.4331 8.89077 29.4938 10.4694C30.5546 12.048 31.2185 13.8594 31.4291 15.7496H35.4375C36.4818 15.7496 37.4833 16.1645 38.2217 16.9029C38.9602 17.6413 39.375 18.6428 39.375 19.6871V32.8121C39.375 33.8564 38.9602 34.8579 38.2217 35.5964C37.4833 36.3348 36.4818 36.7496 35.4375 36.7496H22.3125C21.2682 36.7496 20.2667 36.3348 19.5283 35.5964C18.7898 34.8579 18.375 33.8564 18.375 32.8121V28.8037ZM31.4291 18.3746C31.1309 21.0379 29.9362 23.5208 28.0412 25.4158C26.1462 27.3108 23.6633 28.5055 21 28.8037V32.8121C21 33.1602 21.1383 33.4941 21.3844 33.7402C21.6306 33.9863 21.9644 34.1246 22.3125 34.1246H35.4375C35.7856 34.1246 36.1194 33.9863 36.3656 33.7402C36.6117 33.4941 36.75 33.1602 36.75 32.8121V19.6871C36.75 19.339 36.6117 19.0052 36.3656 18.759C36.1194 18.5129 35.7856 18.3746 35.4375 18.3746H31.4291ZM28.7831 18.3746H22.3125C21.9644 18.3746 21.6306 18.5129 21.3844 18.759C21.1383 19.0052 21 19.339 21 19.6871V26.1577C22.9634 25.8739 24.7824 24.9626 26.1852 23.5598C27.588 22.157 28.4993 20.3381 28.7831 18.3746ZM12.5869 19.8472C12.3113 18.834 11.865 17.8181 11.0985 17.0385C12.3375 15.8651 13.125 13.9961 13.125 11.8121C13.125 9.9825 12.7549 8.72512 12.0855 7.71975C11.7885 7.28734 11.4452 6.88861 11.0618 6.53062C10.9148 6.38874 10.766 6.24873 10.6155 6.11062C10.4554 5.961 10.3084 5.8245 10.1168 5.63287C9.723 5.23912 9.67838 4.92412 9.67838 4.75875C9.67881 4.66682 9.69387 4.57556 9.723 4.48837C9.84302 4.22883 9.87499 3.93719 9.81405 3.65781C9.75312 3.37843 9.60261 3.12659 9.38541 2.94059C9.16822 2.7546 8.89623 2.64462 8.6108 2.62739C8.32537 2.61015 8.04212 2.68661 7.80413 2.84512L7.79887 2.84775L7.791 2.853L7.76738 2.86875L7.68862 2.92125C7.29487 3.2021 6.91552 3.5026 6.552 3.82162C5.89575 4.40175 5.04 5.26012 4.43363 6.28387C3.90429 7.13261 3.47946 8.0422 3.16838 8.99287C2.85338 9.93525 2.625 10.9564 2.625 11.8121C2.625 13.9961 3.4125 15.8625 4.6515 17.0411C3.885 17.8181 3.43875 18.834 3.16313 19.8499C2.625 21.8239 2.625 24.2651 2.625 26.1525V26.2496C2.625 31.6519 3.63562 34.8596 4.78012 36.768C5.355 37.7235 5.9535 38.3404 6.45488 38.7289C6.72203 38.9372 7.01278 39.1135 7.32113 39.2539C7.49944 39.319 7.68577 39.3596 7.875 39.3746C8.0955 39.3746 8.42887 39.2539 8.42887 39.2539C8.73722 39.1135 9.02797 38.9372 9.29512 38.7289C9.79387 38.3404 10.3976 37.7235 10.9699 36.768C12.1144 34.8622 13.125 31.6519 13.125 26.2496V26.1551C13.125 24.2651 13.125 21.8265 12.5869 19.8472ZM6.52837 18.876C6.825 18.5767 7.22138 18.3746 7.875 18.3746C8.53125 18.3746 8.925 18.5794 9.22163 18.8734C9.55237 19.2067 9.8385 19.7475 10.0537 20.5376C10.4895 22.1415 10.5 24.2467 10.5 26.2496C10.5 31.3474 9.54188 34.0459 8.71763 35.4187C8.40263 35.9437 8.106 36.2824 7.875 36.495C7.54495 36.1776 7.26128 35.8153 7.03237 35.4187C6.20812 34.0432 5.25 31.3474 5.25 26.2496C5.25 24.2467 5.2605 22.1415 5.69625 20.5376C5.9115 19.7501 6.19762 19.2067 6.52837 18.8734V18.876ZM7.875 15.7496C6.86438 15.7496 5.25 14.6261 5.25 11.8121C5.25 11.358 5.3865 10.6387 5.6595 9.825C5.90828 9.05675 6.25127 8.32229 6.68063 7.63837C6.909 7.2525 7.20563 6.87712 7.52588 6.53325C7.707 6.8535 7.94588 7.17637 8.26088 7.49137C8.4525 7.683 8.70187 7.914 8.9145 8.1135L9.24 8.418C9.51562 8.68575 9.72825 8.91937 9.89887 9.17925C10.2139 9.64912 10.5 10.3605 10.5 11.8121C10.5 14.6261 8.88562 15.7496 7.875 15.7496Z" fill="white"/>
</svg>
