<svg xmlns="http://www.w3.org/2000/svg" width="9" height="10" viewBox="0 0 9 10" fill="none">
<path d="M4.19759 4.8724C4.36254 5.04253 4.63746 5.04253 4.80241 4.8724L8.37629 1.2051C8.54124 1.01607 8.54124 0.732514 8.37629 0.562382L7.95475 0.127599C7.78981 -0.0425331 7.51489 -0.0425331 7.33162 0.127599L4.50916 3.03875L1.66838 0.127599C1.48511 -0.0425331 1.21019 -0.0425331 1.04525 0.127599L0.623711 0.562382C0.458763 0.732514 0.458763 1.01607 0.623711 1.2051L4.19759 4.8724Z" fill="#6B7280"/>
<path d="M4.19759 9.8724C4.36254 10.0425 4.63746 10.0425 4.80241 9.8724L8.37629 6.2051C8.54124 6.01607 8.54124 5.73251 8.37629 5.56238L7.95475 5.1276C7.78981 4.95747 7.51489 4.95747 7.33162 5.1276L4.50916 8.03875L1.66838 5.1276C1.48511 4.95747 1.21019 4.95747 1.04525 5.1276L0.623711 5.56238C0.458763 5.73251 0.458763 6.01607 0.623711 6.2051L4.19759 9.8724Z" fill="#6B7280"/>
</svg>