<svg width="20" height="20" viewBox="0 0 20 20" fill="none" xmlns="http://www.w3.org/2000/svg">
<path d="M10 20C15.5228 20 20 15.5228 20 10C20 4.47715 15.5228 0 10 0C4.47715 0 0 4.47715 0 10C0 15.5228 4.47715 20 10 20Z" fill="#254EDB"/>
<path d="M13.8928 12.8905L14.3363 10H11.5628V8.12439C11.5628 7.33352 11.9502 6.56265 13.1923 6.56265H14.4532V4.10178C13.7129 3.98198 12.9648 3.91658 12.215 3.90613C9.93061 3.90613 8.43757 5.29048 8.43757 7.797V10H5.89844V12.8905H8.43757V19.8783C9.47298 20.0406 10.5274 20.0406 11.5628 19.8783V12.8905H13.8928Z" fill="white"/>
</svg>
