<svg xmlns="http://www.w3.org/2000/svg" width="50" height="66" viewBox="0 0 50 66" fill="none">
  <g opacity="0.3">
    <path opacity="0.3" d="M42.3014 15.3742C40.6612 15.3727 39.0887 14.7204 37.929 13.5607C36.7692 12.401 36.117 10.8285 36.1154 9.18846V0.599854H8.47338C6.33229 0.599854 4.2789 1.45039 2.76492 2.96431C1.25094 4.47822 0.400391 6.53149 0.400391 8.67249V57.3365C0.40357 59.4754 1.25552 61.5256 2.76915 63.037C4.28279 64.5483 6.33437 65.3972 8.47338 65.3972H41.6564C43.7954 65.3972 45.847 64.5483 47.3606 63.037C48.8743 61.5256 49.7262 59.4754 49.7294 57.3365V15.3742H42.3014Z" fill="#B91C1C"/>
  </g>
  <path d="M49.7292 15.3742H42.3012C40.6611 15.3726 39.0886 14.7204 37.9288 13.5607C36.7691 12.401 36.1168 10.8285 36.1152 9.18846V0.599854L49.7292 15.3742Z" fill="#B91C1C"/>
  <path d="M39.5794 45.85H8.60742C8.30905 45.85 8.0229 45.7315 7.81192 45.5205C7.60094 45.3095 7.48242 45.0234 7.48242 44.725C7.48322 44.4272 7.60209 44.1418 7.81298 43.9315C8.02387 43.7212 8.30957 43.6031 8.60742 43.6031H39.5794C39.877 43.6031 40.1624 43.7212 40.3728 43.9316C40.5832 44.142 40.7014 44.4275 40.7014 44.725C40.7018 44.8726 40.6731 45.0188 40.6169 45.1553C40.5607 45.2918 40.4781 45.4158 40.3739 45.5203C40.2696 45.6248 40.1458 45.7077 40.0095 45.7643C39.8732 45.8209 39.727 45.85 39.5794 45.85Z" fill="#B91C1C"/>
  <path d="M39.5794 33.1785H8.60742C8.30957 33.1785 8.02387 33.0604 7.81298 32.8501C7.60209 32.6397 7.48322 32.3544 7.48242 32.0566C7.48242 31.7582 7.60094 31.472 7.81192 31.2611C8.0229 31.0501 8.30905 30.9316 8.60742 30.9316H39.5794C39.727 30.9316 39.8732 30.9608 40.0095 31.0173C40.1458 31.0739 40.2696 31.1568 40.3739 31.2613C40.4781 31.3658 40.5607 31.4898 40.6169 31.6263C40.6731 31.7628 40.7018 31.909 40.7014 32.0566C40.7014 32.3542 40.5832 32.6395 40.3728 32.8499C40.1624 33.0603 39.877 33.1785 39.5794 33.1785Z" fill="#B91C1C"/>
  <path d="M39.5794 39.5142H8.60742C8.30905 39.5142 8.0229 39.3957 7.81192 39.1847C7.60094 38.9738 7.48242 38.6876 7.48242 38.3893C7.48322 38.0914 7.60209 37.8061 7.81298 37.5957C8.02387 37.3854 8.30957 37.2673 8.60742 37.2673H39.5794C39.877 37.2673 40.1624 37.3856 40.3728 37.596C40.5832 37.8064 40.7014 38.0917 40.7014 38.3893C40.7018 38.5369 40.6731 38.6831 40.6169 38.8196C40.5607 38.956 40.4781 39.0801 40.3739 39.1846C40.2696 39.2891 40.1458 39.372 40.0095 39.4286C39.8732 39.4851 39.727 39.5142 39.5794 39.5142Z" fill="#B91C1C"/>
  <path d="M27.3634 26.8427H8.60742C8.30957 26.8427 8.02387 26.7246 7.81298 26.5143C7.60209 26.304 7.48322 26.0186 7.48242 25.7208C7.48242 25.4224 7.60094 25.1363 7.81192 24.9253C8.0229 24.7144 8.30905 24.5958 8.60742 24.5958H27.3634C27.6613 24.5966 27.9467 24.7155 28.157 24.9264C28.3673 25.1372 28.4854 25.4229 28.4854 25.7208C28.4846 26.0181 28.3662 26.303 28.1559 26.5132C27.9457 26.7235 27.6608 26.8419 27.3634 26.8427Z" fill="#B91C1C"/>
  <path d="M27.3634 20.507H8.60742C8.30957 20.507 8.02387 20.3889 7.81298 20.1786C7.60209 19.9682 7.48322 19.6829 7.48242 19.3851C7.48242 19.0867 7.60094 18.8005 7.81192 18.5896C8.0229 18.3786 8.30905 18.2601 8.60742 18.2601H27.3634C27.6613 18.2609 27.9467 18.3798 28.157 18.5907C28.3673 18.8015 28.4854 19.0872 28.4854 19.3851C28.4846 19.6824 28.3662 19.9673 28.1559 20.1775C27.9457 20.3878 27.6608 20.5062 27.3634 20.507Z" fill="#B91C1C"/>
  <path d="M39.0307 18.2601H33.7267C32.8022 18.2601 32.0527 19.0096 32.0527 19.9341V25.2378C32.0527 26.1623 32.8022 26.9118 33.7267 26.9118H39.0307C39.9553 26.9118 40.7047 26.1623 40.7047 25.2378V19.9341C40.7047 19.0096 39.9553 18.2601 39.0307 18.2601Z" fill="#B91C1C"/>
</svg>