<svg width="42" height="32" viewBox="0 0 42 32" fill="none" xmlns="http://www.w3.org/2000/svg">
<path d="M39.7829 5.07158L37.1017 31.995H4.89817L2.73804 5.59264L20.9999 15.8172L39.7829 5.07158Z" fill="url(#paint0_linear_860_74253)"/>
<path d="M38.8734 0L20.9999 16.7898L3.12646 0H20.9999H38.8734Z" fill="url(#paint1_linear_860_74253)"/>
<g filter="url(#filter0_i_860_74253)">
<path d="M4.89825 7.75277V31.995H1.98015C0.886922 31.995 0 31.1081 0 30.0148V4.18228L3.19922 4.26948L4.89825 7.75277Z" fill="url(#paint2_linear_860_74253)"/>
</g>
<g filter="url(#filter1_i_860_74253)">
<path d="M42.0001 4.18228V30.0149C42.0001 31.1081 41.1131 31.9951 40.0188 31.9951H37.1018V7.75277L38.7172 3.93626L42.0001 4.18228Z" fill="url(#paint3_linear_860_74253)"/>
</g>
<path d="M42 1.98015V4.18228L37.1017 7.75277L21 19.4888L4.89825 7.75277L0 4.18228V1.98015C0 0.886922 0.886922 0 1.98015 0H3.12654L21 13.0273L38.8735 0H40.0188C41.1131 0 42 0.88684 42 1.98015Z" fill="url(#paint4_linear_860_74253)"/>
<defs>
<filter id="filter0_i_860_74253" x="0" y="4.18228" width="4.89819" height="28.8127" filterUnits="userSpaceOnUse" color-interpolation-filters="sRGB">
<feFlood flood-opacity="0" result="BackgroundImageFix"/>
<feBlend mode="normal" in="SourceGraphic" in2="BackgroundImageFix" result="shape"/>
<feColorMatrix in="SourceAlpha" type="matrix" values="0 0 0 0 0 0 0 0 0 0 0 0 0 0 0 0 0 0 127 0" result="hardAlpha"/>
<feOffset dy="1"/>
<feGaussianBlur stdDeviation="5"/>
<feComposite in2="hardAlpha" operator="arithmetic" k2="-1" k3="1"/>
<feColorMatrix type="matrix" values="0 0 0 0 0 0 0 0 0 0 0 0 0 0 0 0 0 0 0.25 0"/>
<feBlend mode="normal" in2="shape" result="effect1_innerShadow_860_74253"/>
</filter>
<filter id="filter1_i_860_74253" x="37.1018" y="3.93626" width="4.89819" height="29.0588" filterUnits="userSpaceOnUse" color-interpolation-filters="sRGB">
<feFlood flood-opacity="0" result="BackgroundImageFix"/>
<feBlend mode="normal" in="SourceGraphic" in2="BackgroundImageFix" result="shape"/>
<feColorMatrix in="SourceAlpha" type="matrix" values="0 0 0 0 0 0 0 0 0 0 0 0 0 0 0 0 0 0 127 0" result="hardAlpha"/>
<feOffset dy="1"/>
<feGaussianBlur stdDeviation="5"/>
<feComposite in2="hardAlpha" operator="arithmetic" k2="-1" k3="1"/>
<feColorMatrix type="matrix" values="0 0 0 0 0 0 0 0 0 0 0 0 0 0 0 0 0 0 0.25 0"/>
<feBlend mode="normal" in2="shape" result="effect1_innerShadow_860_74253"/>
</filter>
<linearGradient id="paint0_linear_860_74253" x1="37.6952" y1="10.4019" x2="20.1288" y2="37.5933" gradientUnits="userSpaceOnUse">
<stop stop-color="#F3F4F4"/>
<stop offset="1" stop-color="#F4F4F4"/>
</linearGradient>
<linearGradient id="paint1_linear_860_74253" x1="36.8588" y1="3.32406" x2="28.3141" y2="23.7906" gradientUnits="userSpaceOnUse">
<stop stop-color="#F3F4F4"/>
<stop offset="1" stop-color="#F4F4F4"/>
</linearGradient>
<linearGradient id="paint2_linear_860_74253" x1="4.69055" y1="4.41931" x2="-2.22993" y2="5.08639" gradientUnits="userSpaceOnUse">
<stop stop-color="#0282F1"/>
<stop offset="1" stop-color="#46A8FD"/>
</linearGradient>
<linearGradient id="paint3_linear_860_74253" x1="41.7924" y1="4.17539" x2="34.8708" y2="4.83673" gradientUnits="userSpaceOnUse">
<stop stop-color="#0282F1"/>
<stop offset="1" stop-color="#46A8FD"/>
</linearGradient>
<linearGradient id="paint4_linear_860_74253" x1="40.2191" y1="0.166089" x2="15.1737" y2="29.708" gradientUnits="userSpaceOnUse">
<stop stop-color="#0282F1"/>
<stop offset="1" stop-color="#46A8FD"/>
</linearGradient>
</defs>
</svg>
