<svg width="29" height="18" viewBox="0 0 29 18" fill="none" xmlns="http://www.w3.org/2000/svg">
<path d="M1.24398 7.74412H24.4898L18.943 2.14383C18.4571 1.65353 18.4571 0.858169 18.943 0.367942C19.429 -0.122647 20.2168 -0.122647 20.702 0.367942L28.3724 8.11191C28.8583 8.60221 28.8583 9.39764 28.3724 9.8878L20.702 17.6321C20.4591 17.8775 20.1408 18 19.8225 18C19.5043 18 19.1859 17.8775 18.943 17.6321C18.4571 17.1418 18.4571 16.3465 18.943 15.8563L24.4898 10.2557H1.24398C0.557034 10.2557 -2.47955e-05 9.69342 -2.47955e-05 8.99989C-2.47955e-05 8.30636 0.556961 7.74412 1.24398 7.74412Z" fill="white"/>
</svg>
