<svg width="19" height="18" viewBox="0 0 19 18" fill="none" xmlns="http://www.w3.org/2000/svg">
<path d="M4.12 7.79C5.56 10.62 7.88 12.94 10.71 14.38L12.91 12.18C13.19 11.9 13.58 11.82 13.93 11.93C15.05 12.3 16.25 12.5 17.5 12.5C17.7652 12.5 18.0196 12.6054 18.2071 12.7929C18.3946 12.9804 18.5 13.2348 18.5 13.5V17C18.5 17.2652 18.3946 17.5196 18.2071 17.7071C18.0196 17.8946 17.7652 18 17.5 18C12.9913 18 8.6673 16.2089 5.47918 13.0208C2.29107 9.8327 0.5 5.50868 0.5 1C0.5 0.734784 0.605357 0.48043 0.792893 0.292893C0.98043 0.105357 1.23478 0 1.5 0H5C5.26522 0 5.51957 0.105357 5.70711 0.292893C5.89464 0.48043 6 0.734784 6 1C6 2.25 6.2 3.45 6.57 4.57C6.68 4.92 6.6 5.31 6.32 5.59L4.12 7.79Z" fill="#FF9E00"/>
</svg>
