<svg width="32" height="32" viewBox="0 0 32 32" fill="none" xmlns="http://www.w3.org/2000/svg">
<path d="M2.66666 9.33464C2.66666 8.62739 2.94761 7.94911 3.4477 7.44902C3.9478 6.94892 4.62608 6.66797 5.33332 6.66797H26.6667C27.3739 6.66797 28.0522 6.94892 28.5523 7.44902C29.0524 7.94911 29.3333 8.62739 29.3333 9.33464V22.668C29.3333 23.3752 29.0524 24.0535 28.5523 24.5536C28.0522 25.0537 27.3739 25.3346 26.6667 25.3346H5.33332C4.62608 25.3346 3.9478 25.0537 3.4477 24.5536C2.94761 24.0535 2.66666 23.3752 2.66666 22.668V9.33464Z" stroke="#888991" stroke-width="2" stroke-linecap="round" stroke-linejoin="round"/>
<path d="M16 20C18.2091 20 20 18.2091 20 16C20 13.7909 18.2091 12 16 12C13.7909 12 12 13.7909 12 16C12 18.2091 13.7909 20 16 20Z" stroke="#888991" stroke-width="2" stroke-linecap="round" stroke-linejoin="round"/>
<path d="M2.66666 12.0013C4.08114 12.0013 5.4377 11.4394 6.43789 10.4392C7.43809 9.43901 7.99999 8.08246 7.99999 6.66797M24 25.3346C24 23.9201 24.5619 22.5636 25.5621 21.5634C26.5623 20.5632 27.9188 20.0013 29.3333 20.0013" stroke="#888991" stroke-width="2" stroke-linecap="round" stroke-linejoin="round"/>
</svg>
