<svg width="12" height="11" viewBox="0 0 12 11" fill="none" xmlns="http://www.w3.org/2000/svg">
<path d="M9.797 5H0.5C0.354 5 0.234167 5.04683 0.1405 5.1405C0.0468334 5.23417 0 5.354 0 5.5C0 5.646 0.0468334 5.76583 0.1405 5.8595C0.234167 5.95317 0.354 6 0.5 6H9.797L6.1405 9.6405C6.04683 9.74483 6 9.86467 6 10C6 10.1353 6.0495 10.2525 6.1485 10.3515C6.2475 10.4505 6.36467 10.5 6.5 10.5C6.63533 10.5 6.75517 10.4532 6.8595 10.3595L11.3595 5.8595C11.4532 5.75517 11.5 5.63533 11.5 5.5C11.5 5.36467 11.4532 5.24483 11.3595 5.1405L6.8595 0.6405C6.75517 0.546833 6.63533 0.5 6.5 0.5C6.36467 0.5 6.2475 0.5495 6.1485 0.6485C6.0495 0.7475 6 0.864667 6 1C6 1.13533 6.04683 1.25517 6.1405 1.3595L9.797 5Z" fill="#B91C1C"/>
</svg>
