<svg width="10" height="10" viewBox="0 0 10 10" fill="none" xmlns="http://www.w3.org/2000/svg">
<path d="M8.5 1H2.031C1.885 1 1.76517 0.953167 1.6715 0.8595C1.57783 0.765833 1.531 0.646 1.531 0.5C1.531 0.354 1.57783 0.234167 1.6715 0.1405C1.76517 0.0468334 1.885 0 2.031 0H9C9.146 0 9.26583 0.0468334 9.3595 0.1405C9.45317 0.234167 9.5 0.354 9.5 0.5V7.5C9.5 7.646 9.45317 7.76583 9.3595 7.8595C9.26583 7.95317 9.146 8 9 8C8.854 8 8.73417 7.95317 8.6405 7.8595C8.54683 7.76583 8.5 7.646 8.5 7.5V1ZM8.6405 0.1405C8.74483 0.0468334 8.86467 0 9 0C9.13533 0 9.2525 0.0495 9.3515 0.1485C9.4505 0.2475 9.5 0.364667 9.5 0.5C9.5 0.635333 9.45317 0.755167 9.3595 0.8595L0.8595 9.3595C0.755167 9.45317 0.635333 9.5 0.5 9.5C0.364667 9.5 0.2475 9.4505 0.1485 9.3515C0.0495 9.2525 0 9.13533 0 9C0 8.86467 0.0468334 8.74483 0.1405 8.6405L8.6405 0.1405Z" fill="#254EDB"/>
</svg>
