<svg width="26" height="24" viewBox="0 0 26 24" fill="none" xmlns="http://www.w3.org/2000/svg">
<g id="Icon ">
<path id="Oval" opacity="0.15" fill-rule="evenodd" clip-rule="evenodd" d="M12.75 24C19.3774 24 24.75 18.6274 24.75 12C24.75 5.37258 19.3774 0 12.75 0C6.12258 0 0.75 5.37258 0.75 12C0.75 18.6274 6.12258 24 12.75 24Z" fill="#36B37E"/>
<path id="Icon" d="M11.1485 15.8242L7.88675 12.582C7.7956 12.4909 7.75003 12.3737 7.75003 12.2305C7.75003 12.0872 7.7956 11.97 7.88675 11.8789L8.6094 11.1758C8.70055 11.0716 8.81448 11.0195 8.9512 11.0195C9.08792 11.0195 9.20836 11.0716 9.31253 11.1758L11.5 13.3633L16.1875 8.67578C16.2917 8.57161 16.4121 8.51953 16.5488 8.51953C16.6856 8.51953 16.7995 8.57161 16.8906 8.67578L17.6133 9.3789C17.7044 9.47005 17.75 9.58724 17.75 9.73047C17.75 9.87369 17.7044 9.99088 17.6133 10.082L11.8516 15.8242C11.7604 15.9284 11.6433 15.9805 11.5 15.9805C11.3568 15.9805 11.2396 15.9284 11.1485 15.8242Z" fill="#36B37E"/>
</g>
</svg>
