<svg width="20" height="22" viewBox="0 0 20 22" fill="none" xmlns="http://www.w3.org/2000/svg">
<path d="M13.0007 6.00006L6.50068 12.5001C6.10286 12.8979 5.87936 13.4374 5.87936 14.0001C5.87936 14.5627 6.10286 15.1022 6.50068 15.5001C6.8985 15.8979 7.43807 16.1214 8.00068 16.1214C8.56329 16.1214 9.10286 15.8979 9.50068 15.5001L16.0007 9.00006C16.7963 8.20441 17.2433 7.12527 17.2433 6.00006C17.2433 4.87484 16.7963 3.79571 16.0007 3.00006C15.205 2.20441 14.1259 1.75742 13.0007 1.75742C11.8755 1.75742 10.7963 2.20441 10.0007 3.00006L3.50068 9.50006C2.30721 10.6935 1.63672 12.3122 1.63672 14.0001C1.63672 15.6879 2.30721 17.3066 3.50068 18.5001C4.69415 19.6935 6.31285 20.364 8.00068 20.364C9.68851 20.364 11.3072 19.6935 12.5007 18.5001L19.0007 12.0001" stroke="#254EDB" stroke-width="2" stroke-linecap="round" stroke-linejoin="round"/>
</svg>
