<svg width="20" height="20" viewBox="0 0 20 20" fill="none" xmlns="http://www.w3.org/2000/svg">
<path d="M9.99999 1.66669C14.6024 1.66669 18.3333 5.39765 18.3333 10C18.3333 14.6024 14.6024 18.3334 9.99999 18.3334C5.39762 18.3334 1.66666 14.6024 1.66666 10C1.66666 5.39765 5.39762 1.66669 9.99999 1.66669Z" fill="#51C27E"/>
<path d="M18.3333 10C18.3333 5.39765 14.6024 1.66669 9.99999 1.66669C5.39762 1.66669 1.66666 5.39765 1.66666 10C1.66666 14.6024 5.39762 18.3334 9.99999 18.3334C14.6024 18.3334 18.3333 14.6024 18.3333 10ZM2.08332 10C2.08332 5.62777 5.62774 2.08335 9.99999 2.08335C14.3722 2.08335 17.9167 5.62777 17.9167 10C17.9167 14.3723 14.3722 17.9167 9.99999 17.9167C5.62774 17.9167 2.08332 14.3723 2.08332 10Z" fill="white" fill-opacity="0.2"/>
<path d="M13.0726 7.66998C13.3038 7.44334 13.6787 7.44334 13.9099 7.66998C14.1267 7.88246 14.1402 8.21871 13.9506 8.44665L13.9099 8.49073L9.56782 12.7467C9.35104 12.9592 9.00798 12.9724 8.77542 12.7865L8.73045 12.7467L6.75677 10.8122C6.52554 10.5855 6.52554 10.2181 6.75677 9.99141C6.97355 9.77893 7.3166 9.76565 7.54916 9.95157L7.59413 9.99141L9.14913 11.5157L13.0726 7.66998Z" fill="white"/>
</svg>
