<svg width="24" height="25" viewBox="0 0 24 25" fill="none" xmlns="http://www.w3.org/2000/svg">
<path d="M12 2.5C8.11975 2.5 4.98145 5.63 4.98145 9.5C4.98145 14.75 12 22.5 12 22.5C12 22.5 19.0186 14.75 19.0186 9.5C19.0186 5.63 15.8803 2.5 12 2.5ZM12 12C11.3352 12 10.6976 11.7366 10.2276 11.2678C9.75747 10.7989 9.49338 10.163 9.49338 9.5C9.49338 8.83696 9.75747 8.20107 10.2276 7.73223C10.6976 7.26339 11.3352 7 12 7C12.6648 7 13.3024 7.26339 13.7725 7.73223C14.2426 8.20107 14.5066 8.83696 14.5066 9.5C14.5066 10.163 14.2426 10.7989 13.7725 11.2678C13.3024 11.7366 12.6648 12 12 12Z" fill="black"/>
</svg>
