<svg width="32" height="32" viewBox="0 0 32 32" fill="none" xmlns="http://www.w3.org/2000/svg">
<path fill-rule="evenodd" clip-rule="evenodd" d="M16 10.3359C14.3431 10.3359 13 11.6791 13 13.3359C13 14.9928 14.3431 16.3359 16 16.3359C17.6569 16.3359 19 14.9928 19 13.3359C19 11.6791 17.6569 10.3359 16 10.3359ZM11 13.3359C11 10.5745 13.2386 8.33594 16 8.33594C18.7614 8.33594 21 10.5745 21 13.3359C21 16.0974 18.7614 18.3359 16 18.3359C13.2386 18.3359 11 16.0974 11 13.3359Z" fill="#888991"/>
<path fill-rule="evenodd" clip-rule="evenodd" d="M7.7504 5.08506C9.93833 2.89713 12.9058 1.66797 16 1.66797C19.0942 1.66797 22.0616 2.89713 24.2496 5.08506C26.4375 7.27298 27.6666 10.2404 27.6666 13.3346C27.6666 14.6666 27.5253 15.8229 27.1649 16.9103C26.803 18.0021 26.2367 18.9746 25.447 19.96C25.4389 19.97 25.4307 19.9799 25.4223 19.9896L16.7557 29.9896C16.5657 30.2087 16.29 30.3346 16 30.3346C15.71 30.3346 15.4342 30.2087 15.2443 29.9896L6.57762 19.9896C6.56923 19.9799 6.56102 19.97 6.553 19.96C5.76325 18.9746 5.197 18.0021 4.8351 16.9103C4.47468 15.8229 4.33331 14.6666 4.33331 13.3346C4.33331 10.2404 5.56248 7.27298 7.7504 5.08506ZM16 3.66797C13.4362 3.66797 10.9775 4.68642 9.16461 6.49927C7.35176 8.31212 6.33331 10.7709 6.33331 13.3346C6.33331 14.5254 6.45995 15.4557 6.73352 16.281C7.00403 17.0971 7.43432 17.859 8.10184 18.6945L16 27.8078L23.8981 18.6945C24.5656 17.859 24.9959 17.0971 25.2664 16.281C25.54 15.4557 25.6666 14.5254 25.6666 13.3346C25.6666 10.7709 24.6482 8.31212 22.8353 6.49927C21.0225 4.68642 18.5637 3.66797 16 3.66797Z" fill="#888991"/>
</svg>
