<svg width="24" height="30" viewBox="0 0 24 30" fill="none" xmlns="http://www.w3.org/2000/svg">
<path fill-rule="evenodd" clip-rule="evenodd" d="M12 9.33594C10.3431 9.33594 9 10.6791 9 12.3359C9 13.9928 10.3431 15.3359 12 15.3359C13.6569 15.3359 15 13.9928 15 12.3359C15 10.6791 13.6569 9.33594 12 9.33594ZM7 12.3359C7 9.57451 9.23858 7.33594 12 7.33594C14.7614 7.33594 17 9.57451 17 12.3359C17 15.0974 14.7614 17.3359 12 17.3359C9.23858 17.3359 7 15.0974 7 12.3359Z" fill="white"/>
<path fill-rule="evenodd" clip-rule="evenodd" d="M3.7504 4.08506C5.93833 1.89713 8.90579 0.667969 12 0.667969C15.0942 0.667969 18.0616 1.89713 20.2496 4.08506C22.4375 6.27298 23.6666 9.24044 23.6666 12.3346C23.6666 13.6666 23.5253 14.8229 23.1649 15.9103C22.803 17.0021 22.2367 17.9746 21.447 18.96C21.4389 18.97 21.4307 18.9799 21.4223 18.9896L12.7557 28.9896C12.5657 29.2087 12.29 29.3346 12 29.3346C11.71 29.3346 11.4342 29.2087 11.2443 28.9896L2.57762 18.9896C2.56923 18.9799 2.56102 18.97 2.553 18.96C1.76325 17.9746 1.197 17.0021 0.835102 15.9103C0.474676 14.8229 0.333313 13.6666 0.333313 12.3346C0.333313 9.24044 1.56248 6.27298 3.7504 4.08506ZM12 2.66797C9.43622 2.66797 6.97747 3.68642 5.16461 5.49927C3.35176 7.31212 2.33331 9.77088 2.33331 12.3346C2.33331 13.5254 2.45995 14.4557 2.73352 15.281C3.00403 16.0971 3.43432 16.859 4.10184 17.6945L12 26.8078L19.8981 17.6945C20.5656 16.859 20.9959 16.0971 21.2664 15.281C21.54 14.4557 21.6666 13.5254 21.6666 12.3346C21.6666 9.77087 20.6482 7.31212 18.8353 5.49927C17.0225 3.68642 14.5637 2.66797 12 2.66797Z" fill="white"/>
</svg>
