<svg width="156" height="30" viewBox="0 0 156 30" fill="none" xmlns="http://www.w3.org/2000/svg">
<path fill-rule="evenodd" clip-rule="evenodd" d="M152.834 8.08446C151.217 8.08446 149.906 9.39549 149.906 11.0127C149.906 12.6299 151.217 13.941 152.834 13.941C154.451 13.941 155.762 12.6299 155.762 11.0127C155.762 9.39549 154.451 8.08446 152.834 8.08446ZM149.668 11.0127C149.668 9.26416 151.085 7.84668 152.834 7.84668C154.583 7.84668 156 9.26416 156 11.0127C156 12.7613 154.583 14.1788 152.834 14.1788C151.085 14.1788 149.668 12.7613 149.668 11.0127Z" fill="#1A2DD8"/>
<path d="M151.827 12.1643V9.69189H152.877C153.142 9.69189 153.333 9.71436 153.452 9.75942C153.572 9.80318 153.669 9.88189 153.741 9.99543C153.812 10.109 153.848 10.2389 153.848 10.385C153.848 10.5705 153.795 10.724 153.685 10.8454C153.576 10.9657 153.413 11.0417 153.195 11.0731C153.304 11.1361 153.393 11.2053 153.463 11.2805C153.533 11.3559 153.628 11.4897 153.747 11.6819L154.049 12.1643H153.452L153.091 11.6263C152.964 11.434 152.876 11.3131 152.828 11.2636C152.78 11.2131 152.73 11.1788 152.678 11.1608C152.626 11.1417 152.541 11.1322 152.427 11.1322H152.325V12.1643H151.827ZM152.325 10.7375H152.695C152.935 10.7375 153.084 10.7274 153.143 10.7071C153.204 10.6869 153.25 10.6521 153.283 10.6026C153.318 10.5531 153.334 10.4913 153.334 10.4171C153.334 10.3339 153.312 10.267 153.267 10.2164C153.223 10.1647 153.161 10.132 153.08 10.1186C153.04 10.113 152.917 10.1102 152.715 10.1102H152.325V10.7375Z" fill="#1A2DD8"/>
<path d="M38.2631 29.6673H41.9512C42.1731 29.6673 42.3395 29.5842 42.4226 29.3345L43.2546 26.7278H50.2428L51.0748 29.3345C51.1579 29.5842 51.3243 29.6673 51.5462 29.6673H55.2621C55.5671 29.6673 55.7059 29.4732 55.5949 29.1959L49.1613 10.5884C49.0781 10.3665 48.8562 10.2556 48.6344 10.2556H44.863C44.6411 10.2556 44.4193 10.3665 44.3361 10.5884L37.9025 29.1959C37.7915 29.4732 37.958 29.6673 38.2631 29.6673ZM44.5025 22.8455L46.7487 15.8295L48.9949 22.8455H44.5025Z" fill="#1A2DD8"/>
<path d="M58.2561 29.6672H69.6813C69.9308 29.6672 70.1248 29.5009 70.1248 29.2513V26.5058C70.1248 26.2563 69.9308 26.0621 69.6813 26.0621H62.887L67.5181 21.3479C68.2669 20.5715 70.0971 18.8522 70.0971 15.9681C70.0971 12.5572 67.4627 10.0337 63.6635 10.0337C60.6409 10.0337 58.7275 11.6144 57.6182 13.2227C57.4796 13.3891 57.4796 13.6387 57.6736 13.8328L59.5871 15.7462C59.8367 15.9681 60.0031 15.9958 60.2249 15.7462C60.9459 14.8034 61.8056 13.916 63.303 13.916C64.9114 13.916 65.9653 14.9143 65.9653 16.3564C65.9653 18.0757 64.5509 19.379 63.7744 20.1555L58.0064 26.0067C57.8678 26.2009 57.8124 26.3395 57.8124 26.5337V29.2513C57.8124 29.5009 58.0064 29.6672 58.2561 29.6672Z" fill="#1A2DD8"/>
<path d="M3.57929 23.8542C3.66467 23.7046 3.82411 23.6127 3.99618 23.6138L7.46745 23.6335C7.82888 23.6355 8.05688 24.0233 7.88278 24.3401L7.48581 25.0626C7.31135 25.3801 7.54055 25.7686 7.90282 25.7693L19.0196 25.7918C19.3852 25.7927 19.6141 26.1875 19.433 26.5052L17.7411 29.4721C17.6562 29.6209 17.4981 29.7128 17.3268 29.7128H1.05472C0.688515 29.7128 0.458967 29.3172 0.640579 28.9992L3.57929 23.8542Z" fill="#1A2DD8"/>
<path d="M6.14035 20.9628C5.77092 20.9637 5.54066 20.5626 5.72775 20.2442L7.45528 17.3038C7.54054 17.1588 7.69592 17.0694 7.86417 17.0685L27.4916 16.9678C27.664 16.9669 27.8234 17.0591 27.9086 17.2089L30.0283 20.9355C30.1117 21.0821 30.1114 21.2618 30.0276 21.4083L27.871 25.1755C27.688 25.4952 27.921 25.8929 28.2895 25.8895L32.6876 25.8482C32.8626 25.8465 33.0244 25.9407 33.1093 26.0937L34.7097 28.9787C34.886 29.2967 34.6561 29.6871 34.2927 29.6871H21.5265C21.1587 29.6871 20.9293 29.2886 21.114 28.9705L25.3776 21.6302C25.5625 21.3117 25.3321 20.9127 24.9639 20.9137L6.14035 20.9628Z" fill="#1A2DD8"/>
<path d="M10.0679 14.2749C9.70423 14.2707 9.47886 13.8772 9.65928 13.5614L17.2692 0.240372C17.4519 -0.0794472 17.9127 -0.080282 18.0967 0.238822L25.7976 13.6021C25.9808 13.92 25.7514 14.3172 25.3843 14.3172H21.8612C21.6882 14.3172 21.5287 14.2235 21.4445 14.0724L18.1391 8.14046C17.9596 7.81826 17.4981 7.81301 17.3112 8.13092L13.8169 14.0786C13.7302 14.2261 13.5712 14.316 13.4 14.314L10.0679 14.2749Z" fill="#1A2DD8"/>
<path d="M73.5234 29.6673H85.5862C85.8358 29.6673 86.0296 29.5009 86.0296 29.2514V26.201C86.0296 25.9514 85.8358 25.785 85.5862 25.785H77.5443L85.5862 14.3598C85.6694 14.1934 85.7526 14.0547 85.7526 13.8607V10.6715C85.7526 10.4219 85.5588 10.2556 85.3092 10.2556H73.8007C73.5512 10.2556 73.3847 10.4219 73.3847 10.6715V13.7219C73.3847 13.9716 73.5512 14.1379 73.8007 14.1379H81.2882L73.2461 25.5631C73.1629 25.7295 73.1075 25.8682 73.1075 26.0622V29.2514C73.1075 29.5009 73.2738 29.6673 73.5234 29.6673Z" fill="#1A2DD8"/>
<path d="M93.5305 29.6673H97.0807C97.3303 29.6673 97.4956 29.5009 97.4956 29.2514V14.1379H101.185C101.434 14.1379 101.628 13.9716 101.628 13.7219V10.6715C101.628 10.4219 101.434 10.2556 101.185 10.2556H89.399C89.1494 10.2556 88.9829 10.4219 88.9829 10.6715V13.7219C88.9829 13.9716 89.1494 14.1379 89.399 14.1379H93.0871V29.2514C93.0871 29.5009 93.2809 29.6673 93.5305 29.6673Z" fill="#1A2DD8"/>
<path d="M110.16 30.0001C112.073 30.0001 113.819 29.4455 114.985 28.2808C115.234 28.0589 115.234 27.8371 115.124 27.6707L113.986 26.0623C113.819 25.8682 113.709 25.8127 113.488 25.9236C112.35 26.5615 111.407 26.6724 110.493 26.6724C108.551 26.6724 107.276 25.9513 106.804 24.4817H114.624C115.872 24.4817 116.233 23.6497 116.233 22.2632C116.233 18.7691 113.819 15.7463 109.661 15.7463C105.473 15.7463 102.672 18.8246 102.672 22.8178C102.672 26.9497 105.694 30.0001 110.16 30.0001ZM106.749 21.5422C107.082 19.9337 108.274 19.2405 109.688 19.2405C111.103 19.2405 112.184 19.906 112.462 21.5422H106.749Z" fill="#1A2DD8"/>
<path d="M125.811 30.0001C128.001 30.0001 129.832 29.0296 130.997 27.5043C131.162 27.3103 131.135 27.0884 130.968 26.922L129.056 25.0917C128.833 24.8699 128.529 24.8699 128.334 25.064C127.586 25.7573 126.864 26.1178 125.949 26.1178C123.897 26.1178 122.677 24.5648 122.677 22.7901C122.677 21.043 123.897 19.6288 125.894 19.6288C126.837 19.6288 127.557 19.9615 128.279 20.6825C128.5 20.8767 128.806 20.8767 129.027 20.6548L130.941 18.8245C131.108 18.6581 131.135 18.4086 130.968 18.2421C129.805 16.717 127.974 15.7463 125.7 15.7463C121.596 15.7463 118.6 18.7968 118.6 22.7901C118.6 26.8666 121.651 30.0001 125.811 30.0001Z" fill="#1A2DD8"/>
<path d="M135.158 29.6673H138.542C138.792 29.6673 138.985 29.5009 138.985 29.2514V22.374C138.985 20.5715 139.873 19.6287 141.343 19.6287C142.84 19.6287 143.616 20.5715 143.616 22.374V29.2514C143.616 29.5009 143.811 29.6673 144.061 29.6673H147.416C147.666 29.6673 147.859 29.5009 147.859 29.2514V21.3757C147.859 17.8262 145.78 15.7463 142.952 15.7463C141.01 15.7463 139.762 16.7169 138.985 18.1034V10.2556C138.985 10.0061 138.792 9.8396 138.542 9.8396H135.158C134.909 9.8396 134.743 10.0061 134.743 10.2556V29.2514C134.743 29.5009 134.909 29.6673 135.158 29.6673Z" fill="#1A2DD8"/>
</svg>
