<svg width="30" height="22" viewBox="0 0 30 22" fill="none" xmlns="http://www.w3.org/2000/svg">
<path d="M1.66669 4.33464C1.66669 3.62739 1.94764 2.94911 2.44774 2.44902C2.94783 1.94892 3.62611 1.66797 4.33335 1.66797H25.6667C26.3739 1.66797 27.0522 1.94892 27.5523 2.44902C28.0524 2.94911 28.3334 3.62739 28.3334 4.33464V17.668C28.3334 18.3752 28.0524 19.0535 27.5523 19.5536C27.0522 20.0537 26.3739 20.3346 25.6667 20.3346H4.33335C3.62611 20.3346 2.94783 20.0537 2.44774 19.5536C1.94764 19.0535 1.66669 18.3752 1.66669 17.668V4.33464Z" stroke="white" stroke-width="2" stroke-linecap="round" stroke-linejoin="round"/>
<path d="M15 15C17.2091 15 19 13.2091 19 11C19 8.79086 17.2091 7 15 7C12.7909 7 11 8.79086 11 11C11 13.2091 12.7909 15 15 15Z" stroke="white" stroke-width="2" stroke-linecap="round" stroke-linejoin="round"/>
<path d="M1.66669 7.0013C3.08117 7.0013 4.43773 6.4394 5.43792 5.4392C6.43812 4.43901 7.00002 3.08246 7.00002 1.66797M23 20.3346C23 18.9201 23.5619 17.5636 24.5621 16.5634C25.5623 15.5632 26.9189 15.0013 28.3334 15.0013" stroke="white" stroke-width="2" stroke-linecap="round" stroke-linejoin="round"/>
</svg>
