<svg width="50" height="50" viewBox="0 0 50 50" fill="none" xmlns="http://www.w3.org/2000/svg">
<circle cx="25" cy="25" r="25" fill="#F99191"/>
<path d="M19.8612 22.2166C22.0361 25.291 24.7192 27.9722 27.795 30.1451C28.0452 29.7864 28.2801 29.4511 28.5124 29.1157C29.5122 27.6971 31.0742 27.421 32.4981 28.4136C33.564 29.156 34.6292 29.9 35.6939 30.6454C37.0084 31.5645 37.3528 32.8871 36.6264 34.3218C35.7647 36.0211 34.3031 36.8128 32.464 36.9688C30.3712 37.1482 28.4075 36.6003 26.5576 35.6947C21.0251 32.9822 16.8878 28.853 14.2309 23.2828C13.3728 21.4849 12.8617 19.5822 13.0329 17.561C13.2042 15.5399 14.1242 14.0084 16.061 13.2103C17.1926 12.7441 18.4319 13.0651 19.1582 14.0532C20.0549 15.2718 20.9255 16.5083 21.7586 17.7709C22.5306 18.9419 22.2347 20.4609 21.1219 21.3173C20.7229 21.6239 20.3032 21.9028 19.8612 22.2166Z" fill="white"/>
</svg>
