<svg width="20" height="20" viewBox="0 0 20 20" fill="none" xmlns="http://www.w3.org/2000/svg">
<path d="M4.1665 8.33341V6.66675H5.83317" stroke="#627293" stroke-width="1.5" stroke-linecap="round" stroke-linejoin="round"/>
<path d="M4.1665 11.6667V13.3334H5.83317" stroke="#627293" stroke-width="1.5" stroke-linecap="round" stroke-linejoin="round"/>
<path d="M14.1665 6.66675H15.8332V8.33341" stroke="#627293" stroke-width="1.5" stroke-linecap="round" stroke-linejoin="round"/>
<path d="M14.1665 13.3334H15.8332V11.6667" stroke="#627293" stroke-width="1.5" stroke-linecap="round" stroke-linejoin="round"/>
<path fill-rule="evenodd" clip-rule="evenodd" d="M16.6665 15.8334H3.33317C2.41234 15.8334 1.6665 15.0876 1.6665 14.1667V5.83341C1.6665 4.91258 2.41234 4.16675 3.33317 4.16675H16.6665C17.5873 4.16675 18.3332 4.91258 18.3332 5.83341V14.1667C18.3332 15.0876 17.5873 15.8334 16.6665 15.8334Z" stroke="#627293" stroke-width="1.5" stroke-linecap="round" stroke-linejoin="round"/>
<path d="M11.473 8.52694C12.2866 9.34053 12.2866 10.6596 11.473 11.4732C10.6594 12.2868 9.34029 12.2868 8.5267 11.4732C7.71311 10.6596 7.71311 9.34053 8.5267 8.52694C9.34029 7.71335 10.6594 7.71335 11.473 8.52694" stroke="#627293" stroke-width="1.5" stroke-linecap="round" stroke-linejoin="round"/>
</svg>
