<svg width="18" height="18" viewBox="0 0 18 18" fill="none" xmlns="http://www.w3.org/2000/svg">
<path fill-rule="evenodd" clip-rule="evenodd" d="M1.94969 4.50682C4.55531 4.47443 7.06062 3.49744 9.00029 1.75732C10.9398 3.49776 13.4452 4.47508 16.0509 4.50772C16.1499 5.09272 16.2003 5.69572 16.2003 6.30862C16.2003 11.0111 13.1943 15.0116 9.00029 16.4939C4.80629 15.0107 1.80029 11.0102 1.80029 6.30772C1.80029 5.69392 1.85159 5.09272 1.94969 4.50682ZM12.3366 7.84402C12.5005 7.67428 12.5912 7.44694 12.5892 7.21096C12.5871 6.97499 12.4925 6.74925 12.3256 6.58239C12.1588 6.41552 11.933 6.32087 11.6971 6.31882C11.4611 6.31677 11.2337 6.40748 11.064 6.57142L8.10029 9.53512L6.93659 8.37142C6.76685 8.20748 6.53951 8.11677 6.30353 8.11882C6.06755 8.12087 5.84182 8.21552 5.67496 8.38239C5.50809 8.54925 5.41344 8.77499 5.41139 9.01096C5.40934 9.24694 5.50005 9.47428 5.66399 9.64402L7.46399 11.444C7.63277 11.6127 7.86165 11.7075 8.10029 11.7075C8.33894 11.7075 8.56782 11.6127 8.73659 11.444L12.3366 7.84402Z" fill="#38A169"/>
</svg>
