<svg width="18" height="18" viewBox="0 0 18 18" fill="none" xmlns="http://www.w3.org/2000/svg">
<path d="M9 18C13.9706 18 18 13.9706 18 9C18 4.02944 13.9706 0 9 0C4.02944 0 0 4.02944 0 9C0 13.9706 4.02944 18 9 18Z" fill="#B91C1C"/>
<path fill-rule="evenodd" clip-rule="evenodd" d="M4.07426 8.90497C6.69794 7.76187 8.44747 7.00827 9.32285 6.64417C11.8222 5.60458 12.3416 5.424 12.6801 5.41803C12.7546 5.41672 12.921 5.43517 13.0289 5.52267C13.1199 5.59655 13.145 5.69635 13.1569 5.7664C13.1689 5.83645 13.1839 5.99602 13.172 6.1207C13.0366 7.54381 12.4505 10.9973 12.1523 12.5912C12.0262 13.2657 11.7778 13.4918 11.5373 13.514C11.0146 13.562 10.6178 13.1686 10.1115 12.8367C9.31943 12.3175 8.87193 11.9943 8.10304 11.4876C7.21446 10.902 7.79049 10.5802 8.29689 10.0542C8.42942 9.91655 10.7322 7.82199 10.7768 7.63198C10.7824 7.60821 10.7875 7.51963 10.7349 7.47286C10.6823 7.42608 10.6046 7.44208 10.5486 7.4548C10.4691 7.47283 9.2037 8.30922 6.75232 9.96398C6.39313 10.2106 6.06779 10.3308 5.7763 10.3245C5.45495 10.3176 4.83681 10.1428 4.37729 9.99343C3.81366 9.81022 3.3657 9.71335 3.40471 9.4022C3.42503 9.24013 3.64821 9.07439 4.07426 8.90497Z" fill="white"/>
</svg>
