<svg width="18" height="18" viewBox="0 0 18 18" fill="none" xmlns="http://www.w3.org/2000/svg">
<path d="M16.1572 5.24588C16.1682 5.40862 16.1682 5.57136 16.1682 5.7356C16.1682 10.74 12.4534 16.5115 5.6607 16.5115V16.5085C3.65411 16.5115 1.68921 15.9221 0 14.8107C0.291773 14.8467 0.585009 14.8647 0.878976 14.8654C2.54186 14.8669 4.15722 14.2947 5.46545 13.241C3.88519 13.2103 2.49945 12.1536 2.01536 10.611C2.56892 10.7205 3.13931 10.698 3.68263 10.5457C1.95978 10.1888 0.720293 8.63638 0.720293 6.83352C0.720293 6.81702 0.720293 6.80127 0.720293 6.78552C1.23364 7.07875 1.80841 7.24148 2.39634 7.25948C0.773675 6.14732 0.273492 3.93348 1.25338 2.20261C3.12834 4.56869 5.8947 6.00708 8.86435 6.15932C8.56673 4.84391 8.97331 3.46552 9.93272 2.54084C11.4201 1.10695 13.7594 1.18044 15.1576 2.70508C15.9846 2.53784 16.7773 2.22661 17.5027 1.78564C17.2271 2.66233 16.6501 3.40702 15.8793 3.88024C16.6113 3.79174 17.3265 3.59076 18 3.28403C17.5042 4.04597 16.8797 4.70967 16.1572 5.24588Z" fill="#B91C1C"/>
</svg>
