<svg width="54" height="54" viewBox="0 0 54 54" fill="none" xmlns="http://www.w3.org/2000/svg">
<g filter="url(#filter0_i_860_74554)">
<path d="M35.5788 31.83C32.4337 31.0436 30.1872 27.3369 28.053 23.7426L27.7161 23.181L28.727 22.6194L29.064 23.181C31.0858 26.5507 33.22 30.1451 35.9158 30.819L35.5788 31.83Z" fill="url(#paint0_linear_860_74554)"/>
</g>
<g filter="url(#filter1_i_860_74554)">
<path d="M38.0498 32.5039C37.7128 33.2902 36.7019 33.7395 35.9156 33.2902C35.1293 32.9533 34.1183 31.7177 34.4553 30.9314C34.7923 30.1451 36.3648 30.0329 37.1511 30.3698C37.9375 30.7067 38.4991 31.7176 38.0498 32.5039Z" fill="url(#paint1_linear_860_74554)"/>
</g>
<path d="M27.2669 53.9579L25.1327 43.8487L10.4182 36.5476C10.4182 36.5476 9.07029 36.5476 6.26214 41.3776C3.79107 45.5336 2.44317 52.0484 2.1062 53.9579H27.2669Z" fill="url(#paint2_linear_860_74554)"/>
<path d="M32.9953 6.66922C32.9953 6.66922 35.691 13.4087 35.0171 17.1154C35.0171 17.1154 34.5678 18.8003 34.9047 19.8112C35.2417 20.8221 37.2636 24.5288 37.2636 24.5288C37.2636 24.5288 37.4882 25.5397 36.8142 25.8767C36.1403 26.2137 35.2417 26.1013 34.9047 26.326C34.5678 26.5507 34.2308 26.8876 34.4554 27.4493C34.68 28.0109 34.343 28.9096 33.5568 28.4602C33.5568 28.4602 34.3432 29.1342 33.7815 30.0328C33.7815 30.0328 32.2089 31.493 32.4336 33.2901C32.6582 35.0874 31.198 36.2105 29.8501 35.9859C29.2885 35.9859 28.0529 35.7613 27.042 35.6489C26.1434 35.5366 25.1325 35.9859 24.7955 36.8845L22.0997 43.3993L10.3057 35.7613C10.3057 35.6489 11.4289 31.493 11.4289 31.493L13.6754 8.01722L32.9953 6.66922Z" fill="url(#paint3_linear_860_74554)"/>
<path d="M9.07013 34.7504C9.4071 33.9641 10.3057 33.6271 10.9796 33.8518C13.4508 34.7504 18.5054 36.7722 21.2012 38.9064C24.7955 41.7146 25.5818 43.624 25.5818 43.624L23.7847 48.5663C23.7847 48.5663 18.9547 45.7581 14.1248 43.8487C9.29485 41.9392 7.16064 41.7145 7.16064 41.7145C7.16064 41.7145 7.60998 40.2542 7.72223 38.5693C8.05921 37.4462 8.6209 35.8736 9.07013 34.7504Z" fill="url(#paint4_linear_860_74554)"/>
<path d="M32.9954 6.6692C32.9954 6.6692 26.7053 11.4992 25.4696 13.858C24.234 16.2168 23.5601 16.3292 22.8862 19.9235C22.2123 23.5179 22.2123 23.5179 22.2123 23.5179L18.9549 23.0686L19.1795 18.351C19.1795 18.351 15.6974 20.1482 14.3495 24.6412C10.8674 36.4352 11.4291 31.493 11.4291 31.493C11.4291 31.493 11.6537 29.6958 10.6428 28.3479C10.0812 27.6739 9.07029 27.7863 8.73331 28.6848C8.62095 28.9094 8.5087 29.2464 8.5087 29.6958L5.92527 28.6848C5.92527 28.6848 6.82383 26.663 5.92527 24.1918C5.02671 21.7206 3.34184 15.8798 4.91435 10.3759C6.48686 4.87197 9.96895 -0.294885 17.3824 0.154342C24.7958 0.60357 32.2092 3.86116 32.9954 6.6692Z" fill="url(#paint5_linear_860_74554)"/>
<path d="M20.2557 20.6501C19.7907 18.1493 18.1776 16.3518 16.6527 16.6354C15.1279 16.9189 14.2686 19.176 14.7336 21.6768C15.1985 24.1776 16.8116 25.9751 18.3365 25.6916C19.8614 25.4081 20.7207 23.1509 20.2557 20.6501Z" fill="#E5EAEC"/>
<path d="M31.4229 4.98431C32.9954 6.10759 34.0063 7.90482 34.1187 9.8143C33.7817 7.90482 32.5462 6.10759 30.7489 5.32129C29.1764 4.64734 27.3792 4.64734 25.6943 4.64734" fill="#006DF0"/>
<path d="M32.9952 6.89384C32.9952 6.89384 32.8829 6.89384 32.7706 7.0062C32.6583 7.11856 32.4337 7.11856 32.3213 7.23081C32.2089 7.34317 32.0967 7.34317 31.9843 7.45543C31.872 7.56779 31.7597 7.56779 31.6473 7.68004C31.535 7.7924 31.3104 7.90465 31.198 7.90465C31.0857 8.01701 30.861 8.12927 30.7487 8.24163C30.4117 8.46624 30.0747 8.69096 29.7378 9.02794C29.4008 9.36491 29.0638 9.70188 28.7268 10.0389C28.3899 10.3758 28.0529 10.8252 27.7159 11.1621C27.3789 11.6115 27.042 12.0607 26.8174 12.51C26.4804 12.9594 26.2558 13.4086 26.0311 13.9703C25.8064 14.4196 25.5817 14.9812 25.4695 15.4305C25.3571 15.8799 25.1325 16.3291 25.0201 16.7784C24.9078 17.2278 24.7955 17.677 24.7955 18.014C24.7955 18.2386 24.6832 18.4633 24.6832 18.5756C24.6832 18.8002 24.6832 18.9125 24.5708 19.1371C24.5708 19.2495 24.5708 19.4741 24.5708 19.5865C24.5708 19.6988 24.5708 19.8111 24.5708 19.9234C24.5708 20.1481 24.5708 20.3728 24.5708 20.485C24.5708 20.5973 24.5708 20.7096 24.5708 20.7096C24.5708 20.7096 24.5708 20.5973 24.5708 20.485C24.5708 20.3728 24.5708 20.1481 24.5708 19.9234C24.5708 19.8111 24.5708 19.6988 24.5708 19.4741C24.5708 19.3618 24.5708 19.1371 24.5708 19.0248C24.5708 18.9124 24.5708 18.6878 24.5708 18.4632C24.5708 18.2386 24.5708 18.1262 24.6832 17.9016C24.6832 17.4523 24.7955 17.003 24.9078 16.5537C25.0201 16.1044 25.1324 15.6551 25.2447 15.0935C25.3571 14.6441 25.5817 14.0825 25.8063 13.6332C26.0309 13.1839 26.2557 12.6223 26.4803 12.173C26.7049 11.7236 27.0419 11.2744 27.3788 10.8251C27.7158 10.3757 28.0528 9.9265 28.3898 9.58952C28.7267 9.25255 29.0637 8.80322 29.4007 8.46624C29.7377 8.12927 30.0746 7.79229 30.4116 7.56768C30.524 7.45532 30.7486 7.34307 30.8609 7.23071C30.9733 7.11835 31.1979 7.00609 31.3103 6.89373C31.4226 7.00609 31.5349 6.89373 31.6472 6.78137C31.7596 6.66902 31.8719 6.66902 31.9842 6.55676C32.2088 6.4444 32.3212 6.33215 32.4335 6.21979C32.5459 6.21979 32.6582 6.21979 32.6582 6.21979L32.9952 6.89384Z" fill="#006DF0"/>
<path d="M31.3104 7.79245C31.3104 7.79245 31.198 7.90481 30.9734 8.01706C30.861 8.01706 30.8611 8.12942 30.7488 8.12942C30.6365 8.12942 30.6364 8.24178 30.5242 8.35403C30.4118 8.46639 30.4118 8.46639 30.2996 8.57865C30.1873 8.6909 30.0748 8.69101 30.0748 8.80337C29.9625 8.91573 29.8502 8.91573 29.8502 9.02798C29.7379 9.14034 29.6256 9.25259 29.5133 9.36495L29.4009 9.47731L29.2885 9.58967C29.1762 9.70203 29.0639 9.81429 28.9516 9.92665C28.727 10.1513 28.6146 10.376 28.39 10.713C28.1654 10.9376 28.053 11.2745 27.8284 11.4993C27.716 11.8362 27.4914 12.0608 27.3791 12.3978C27.2667 12.7348 27.1544 12.9594 27.0421 13.2964C26.9297 13.4087 26.9297 13.6334 26.9297 13.7457C26.9297 13.8581 26.9297 13.8581 26.8174 13.9703C26.8174 14.0827 26.8174 14.0827 26.705 14.1949C26.705 14.3073 26.5926 14.4196 26.5926 14.6443C26.5926 14.7566 26.4803 14.8689 26.4803 14.9812C26.4803 15.0936 26.3679 15.2059 26.3679 15.3182C26.3679 15.4306 26.3679 15.5428 26.3679 15.6552C26.3679 15.7676 26.3679 15.8798 26.3679 15.8798C26.3679 15.9922 26.3679 15.9922 26.3679 16.1044C26.3679 16.4414 26.3679 16.5538 26.3679 16.5538C26.3679 16.5538 26.3679 16.4414 26.3679 16.1044C26.3679 15.9921 26.3679 15.9921 26.3679 15.8798C26.3679 15.7675 26.3679 15.6552 26.3679 15.5428C26.3679 15.4305 26.3679 15.3182 26.3679 15.2059C26.3679 15.0935 26.3679 14.9812 26.4803 14.8689C26.4803 14.7565 26.4803 14.6443 26.5926 14.5319C26.5926 14.4196 26.705 14.3073 26.705 14.0826C26.705 13.9702 26.705 13.9702 26.705 13.858C26.705 13.7457 26.705 13.7456 26.8174 13.6334C26.8174 13.521 26.9297 13.2964 26.9297 13.184C27.0421 12.847 27.1543 12.6224 27.2667 12.2855C27.3791 11.9485 27.4913 11.7239 27.716 11.3869C27.8284 11.0499 28.053 10.8253 28.1654 10.4883C28.39 10.1514 28.5023 9.92675 28.7269 9.70203C28.8393 9.58967 28.9516 9.47742 29.0639 9.36506C29.0639 9.2527 29.1763 9.2527 29.1763 9.14045C29.1763 9.02809 29.2886 9.02809 29.2886 9.02809C29.1763 9.02809 29.2886 8.91573 29.401 8.80347C29.5134 8.69111 29.6256 8.57886 29.6256 8.4665C29.738 8.35414 29.8502 8.24188 29.8502 8.24188C29.9626 8.12952 30.0748 8.12952 30.0748 8.01727C30.2995 7.90491 30.2995 7.90491 30.4118 7.79266C30.5242 7.6803 30.5242 7.6803 30.6364 7.6803C30.8611 7.45568 30.9734 7.34332 30.9734 7.34332L31.3104 7.79245Z" fill="#006DF0"/>
<path d="M8.95797 26.8876C8.05941 29.0218 8.39638 31.4929 8.95797 33.7394C9.51955 35.9859 10.0812 38.3447 9.4073 40.5913C8.95797 42.1638 8.05941 43.3994 6.93613 44.635C5.92521 45.8705 4.80192 46.9938 4.01572 48.454C3.22942 49.8019 2.89244 51.5991 3.34178 53.0593C1.88152 52.9469 0.758243 51.599 0.30891 50.2511C-0.140423 48.9032 -0.0280636 47.3307 0.19655 45.8705C0.870497 41.0405 1.99378 36.3229 3.7909 31.7176C4.12787 30.819 4.46485 29.9204 5.02643 29.2464C5.58802 28.4601 6.37433 27.7862 7.27289 27.5616" fill="url(#paint6_linear_860_74554)"/>
<g filter="url(#filter2_i_860_74554)">
<path d="M8.73329 28.5725C7.72237 28.4601 6.82381 28.0109 6.14986 27.2246C5.36356 27.7862 4.91433 28.4601 5.02658 29.4711C6.14986 29.4711 7.27304 29.808 8.50868 30.482C8.84565 29.9204 9.07026 29.2465 8.73329 28.5725Z" fill="url(#paint7_linear_860_74554)"/>
</g>
<path d="M27.0421 35.6489C27.0421 35.6489 19.9657 32.5038 15.0234 25.989C15.0234 26.1014 17.0453 31.2683 24.5711 37.5585L24.7957 36.8845C25.2449 35.9859 26.1436 35.5367 27.0421 35.6489Z" fill="#E5EAEC"/>
<path d="M20.7519 18.4633C18.3931 18.4633 16.4836 20.3728 16.4836 22.7316C16.4836 25.0904 18.3931 26.9999 20.7519 26.9999C23.1108 26.9999 25.0202 25.0904 25.0202 22.7316C25.1326 20.3729 23.223 18.4633 20.7519 18.4633ZM20.7519 26.4384C18.7301 26.4384 17.0452 24.7535 17.0452 22.7317C17.0452 20.7099 18.7301 19.025 20.7519 19.025C22.7738 19.025 24.4587 20.7099 24.4587 22.7317C24.4587 24.7535 22.886 26.4384 20.7519 26.4384Z" fill="#415A6B"/>
<g filter="url(#filter3_i_860_74554)">
<path d="M20.7519 17.6771C17.9438 17.6771 15.585 19.9235 15.585 22.8439C15.585 25.6521 17.8314 28.0109 20.7519 28.0109C23.5601 28.0109 25.9189 25.7645 25.9189 22.8439C25.9189 19.9234 23.6723 17.6771 20.7519 17.6771ZM20.7519 26.4384C18.7301 26.4384 17.0452 24.7535 17.0452 22.7317C17.0452 20.7099 18.7301 19.025 20.7519 19.025C22.7738 19.025 24.4586 20.7099 24.4586 22.7317C24.4586 24.7535 22.886 26.4384 20.7519 26.4384Z" fill="url(#paint8_linear_860_74554)"/>
</g>
<path d="M20.7521 26.4384C22.7993 26.4384 24.4588 24.7788 24.4588 22.7317C24.4588 20.6845 22.7993 19.025 20.7521 19.025C18.705 19.025 17.0454 20.6845 17.0454 22.7317C17.0454 24.7788 18.705 26.4384 20.7521 26.4384Z" fill="#F3F3F3"/>
<path d="M23.6726 25.0905V22.6194C23.6726 21.1591 22.437 19.9236 20.9768 19.9236C19.5165 19.9236 18.281 21.1591 18.281 22.6194V25.4275C17.607 24.7536 17.1577 23.855 17.1577 22.8441C17.1577 20.8222 18.8426 19.1374 20.8644 19.1374C22.8863 19.1374 24.5711 20.8222 24.5711 22.8441C24.4589 23.6303 24.1219 24.5288 23.6726 25.0905Z" fill="#CED6E0"/>
<g filter="url(#filter4_i_860_74554)">
<path d="M22.8862 23.8549C22.2123 24.9782 20.8644 25.3151 19.7411 24.6412C18.9549 24.1918 18.6179 23.4056 18.6179 22.6193C18.6179 21.9454 18.6179 21.2714 18.5056 20.5975C18.3932 19.6989 18.2809 18.688 18.1686 18.0141C18.0562 16.6662 16.9331 11.4992 16.7083 10.4883C16.4837 9.58973 15.2481 3.97344 15.0235 2.51329C14.7989 1.05314 14.9111 0.154474 14.9111 0.154474C14.9111 0.154474 15.4728 0.0421143 16.7084 0.0421143C17.8317 0.0421143 17.8317 0.266728 17.8317 0.266728C17.3824 0.379088 17.0454 1.05303 16.8207 2.7379C16.7083 4.42277 17.4946 7.45553 17.4946 7.45553C17.4946 7.45553 19.1795 12.3978 19.6288 14.3074C19.9658 15.5429 21.2013 18.351 21.9877 20.1483C22.2123 20.5976 22.437 21.0468 22.774 21.4962C23.2232 22.17 23.3355 23.0687 22.8862 23.8549Z" fill="url(#paint9_linear_860_74554)"/>
</g>
<path d="M54.0001 6.78152V15.7674C54.0001 16.5538 53.4385 17.1153 52.6522 17.1153H45.0141L38.6116 21.833L41.0828 17.1153H39.6226C38.8362 17.1153 38.2747 16.5538 38.2747 15.7674V6.78152C38.2747 5.99521 38.8362 5.43362 39.6226 5.43362H52.6522C53.4385 5.43362 54.0001 6.10757 54.0001 6.78152Z" fill="url(#paint10_linear_860_74554)"/>
<path d="M51.7534 7.90488H40.4087V9.14041H51.7534V7.90488Z" fill="url(#paint11_linear_860_74554)"/>
<path d="M51.7534 10.7129H40.4087V11.9485H51.7534V10.7129Z" fill="url(#paint12_linear_860_74554)"/>
<path d="M48.3837 13.5211H40.4087V14.7566H48.3837V13.5211Z" fill="url(#paint13_linear_860_74554)"/>
<defs>
<filter id="filter0_i_860_74554" x="27.7161" y="22.6194" width="8.19971" height="10.2105" filterUnits="userSpaceOnUse" color-interpolation-filters="sRGB">
<feFlood flood-opacity="0" result="BackgroundImageFix"/>
<feBlend mode="normal" in="SourceGraphic" in2="BackgroundImageFix" result="shape"/>
<feColorMatrix in="SourceAlpha" type="matrix" values="0 0 0 0 0 0 0 0 0 0 0 0 0 0 0 0 0 0 127 0" result="hardAlpha"/>
<feOffset dy="1"/>
<feGaussianBlur stdDeviation="5"/>
<feComposite in2="hardAlpha" operator="arithmetic" k2="-1" k3="1"/>
<feColorMatrix type="matrix" values="0 0 0 0 0 0 0 0 0 0 0 0 0 0 0 0 0 0 0.25 0"/>
<feBlend mode="normal" in2="shape" result="effect1_innerShadow_860_74554"/>
</filter>
<filter id="filter1_i_860_74554" x="34.3887" y="30.1907" width="3.8208" height="4.27798" filterUnits="userSpaceOnUse" color-interpolation-filters="sRGB">
<feFlood flood-opacity="0" result="BackgroundImageFix"/>
<feBlend mode="normal" in="SourceGraphic" in2="BackgroundImageFix" result="shape"/>
<feColorMatrix in="SourceAlpha" type="matrix" values="0 0 0 0 0 0 0 0 0 0 0 0 0 0 0 0 0 0 127 0" result="hardAlpha"/>
<feOffset dy="1"/>
<feGaussianBlur stdDeviation="5"/>
<feComposite in2="hardAlpha" operator="arithmetic" k2="-1" k3="1"/>
<feColorMatrix type="matrix" values="0 0 0 0 0 0 0 0 0 0 0 0 0 0 0 0 0 0 0.25 0"/>
<feBlend mode="normal" in2="shape" result="effect1_innerShadow_860_74554"/>
</filter>
<filter id="filter2_i_860_74554" x="5.00952" y="27.2246" width="3.89038" height="4.25739" filterUnits="userSpaceOnUse" color-interpolation-filters="sRGB">
<feFlood flood-opacity="0" result="BackgroundImageFix"/>
<feBlend mode="normal" in="SourceGraphic" in2="BackgroundImageFix" result="shape"/>
<feColorMatrix in="SourceAlpha" type="matrix" values="0 0 0 0 0 0 0 0 0 0 0 0 0 0 0 0 0 0 127 0" result="hardAlpha"/>
<feOffset dy="1"/>
<feGaussianBlur stdDeviation="5"/>
<feComposite in2="hardAlpha" operator="arithmetic" k2="-1" k3="1"/>
<feColorMatrix type="matrix" values="0 0 0 0 0 0 0 0 0 0 0 0 0 0 0 0 0 0 0.25 0"/>
<feBlend mode="normal" in2="shape" result="effect1_innerShadow_860_74554"/>
</filter>
<filter id="filter3_i_860_74554" x="15.585" y="17.6771" width="10.334" height="11.3338" filterUnits="userSpaceOnUse" color-interpolation-filters="sRGB">
<feFlood flood-opacity="0" result="BackgroundImageFix"/>
<feBlend mode="normal" in="SourceGraphic" in2="BackgroundImageFix" result="shape"/>
<feColorMatrix in="SourceAlpha" type="matrix" values="0 0 0 0 0 0 0 0 0 0 0 0 0 0 0 0 0 0 127 0" result="hardAlpha"/>
<feOffset dy="1"/>
<feGaussianBlur stdDeviation="5"/>
<feComposite in2="hardAlpha" operator="arithmetic" k2="-1" k3="1"/>
<feColorMatrix type="matrix" values="0 0 0 0 0 0 0 0 0 0 0 0 0 0 0 0 0 0 0.25 0"/>
<feBlend mode="normal" in2="shape" result="effect1_innerShadow_860_74554"/>
</filter>
<filter id="filter4_i_860_74554" x="14.8831" y="0.0421143" width="8.28931" height="25.9449" filterUnits="userSpaceOnUse" color-interpolation-filters="sRGB">
<feFlood flood-opacity="0" result="BackgroundImageFix"/>
<feBlend mode="normal" in="SourceGraphic" in2="BackgroundImageFix" result="shape"/>
<feColorMatrix in="SourceAlpha" type="matrix" values="0 0 0 0 0 0 0 0 0 0 0 0 0 0 0 0 0 0 127 0" result="hardAlpha"/>
<feOffset dy="1"/>
<feGaussianBlur stdDeviation="5"/>
<feComposite in2="hardAlpha" operator="arithmetic" k2="-1" k3="1"/>
<feColorMatrix type="matrix" values="0 0 0 0 0 0 0 0 0 0 0 0 0 0 0 0 0 0 0.25 0"/>
<feBlend mode="normal" in2="shape" result="effect1_innerShadow_860_74554"/>
</filter>
<linearGradient id="paint0_linear_860_74554" x1="35.5681" y1="22.6979" x2="26.1189" y2="27.3021" gradientUnits="userSpaceOnUse">
<stop stop-color="#0282F1"/>
<stop offset="1" stop-color="#46A8FD"/>
</linearGradient>
<linearGradient id="paint1_linear_860_74554" x1="38.0475" y1="30.2186" x2="34.1751" y2="32.6891" gradientUnits="userSpaceOnUse">
<stop stop-color="#0282F1"/>
<stop offset="1" stop-color="#46A8FD"/>
</linearGradient>
<linearGradient id="paint2_linear_860_74554" x1="25.8489" y1="39.9945" x2="14.7273" y2="58.076" gradientUnits="userSpaceOnUse">
<stop stop-color="#F3F4F4"/>
<stop offset="1" stop-color="#F4F4F4"/>
</linearGradient>
<linearGradient id="paint3_linear_860_74554" x1="35.7782" y1="13.9411" x2="9.95784" y2="35.2891" gradientUnits="userSpaceOnUse">
<stop stop-color="#F3F4F4"/>
<stop offset="1" stop-color="#F4F4F4"/>
</linearGradient>
<linearGradient id="paint4_linear_860_74554" x1="24.8007" y1="33.9094" x2="6.8723" y2="46.1372" gradientUnits="userSpaceOnUse">
<stop stop-color="#0282F1"/>
<stop offset="1" stop-color="#46A8FD"/>
</linearGradient>
<linearGradient id="paint5_linear_860_74554" x1="31.7774" y1="0.403109" x2="-1.3754" y2="16.4942" gradientUnits="userSpaceOnUse">
<stop stop-color="#0282F1"/>
<stop offset="1" stop-color="#46A8FD"/>
</linearGradient>
<linearGradient id="paint6_linear_860_74554" x1="9.30333" y1="27.1106" x2="-4.00122" y2="29.8138" gradientUnits="userSpaceOnUse">
<stop stop-color="#0282F1"/>
<stop offset="1" stop-color="#46A8FD"/>
</linearGradient>
<linearGradient id="paint7_linear_860_74554" x1="8.73503" y1="27.2524" x2="4.84824" y2="29.7932" gradientUnits="userSpaceOnUse">
<stop stop-color="#0282F1"/>
<stop offset="1" stop-color="#46A8FD"/>
</linearGradient>
<linearGradient id="paint8_linear_860_74554" x1="25.4807" y1="17.7652" x2="14.1416" y2="23.9714" gradientUnits="userSpaceOnUse">
<stop stop-color="#0282F1"/>
<stop offset="1" stop-color="#46A8FD"/>
</linearGradient>
<linearGradient id="paint9_linear_860_74554" x1="22.8208" y1="0.254701" x2="11.3791" y2="2.33568" gradientUnits="userSpaceOnUse">
<stop stop-color="#0282F1"/>
<stop offset="1" stop-color="#46A8FD"/>
</linearGradient>
<linearGradient id="paint10_linear_860_74554" x1="53.3333" y1="5.57338" x2="35.752" y2="14.8006" gradientUnits="userSpaceOnUse">
<stop stop-color="#0282F1"/>
<stop offset="1" stop-color="#46A8FD"/>
</linearGradient>
<linearGradient id="paint11_linear_860_74554" x1="51.1141" y1="8.14949" x2="50.9445" y2="9.90168" gradientUnits="userSpaceOnUse">
<stop stop-color="#F3F4F4"/>
<stop offset="1" stop-color="#F4F4F4"/>
</linearGradient>
<linearGradient id="paint12_linear_860_74554" x1="51.1141" y1="10.9575" x2="50.9445" y2="12.7097" gradientUnits="userSpaceOnUse">
<stop stop-color="#F3F4F4"/>
<stop offset="1" stop-color="#F4F4F4"/>
</linearGradient>
<linearGradient id="paint13_linear_860_74554" x1="47.9343" y1="13.7657" x2="47.6952" y2="15.5014" gradientUnits="userSpaceOnUse">
<stop stop-color="#F3F4F4"/>
<stop offset="1" stop-color="#F4F4F4"/>
</linearGradient>
</defs>
</svg>
