<svg width="20" height="20" viewBox="0 0 20 20" fill="none" xmlns="http://www.w3.org/2000/svg">
<path d="M8.33398 14.9999H11.6673" stroke="#627293" stroke-width="1.5" stroke-linecap="round" stroke-linejoin="round"/>
<path fill-rule="evenodd" clip-rule="evenodd" d="M14.1492 2.5H5.85091C5.39091 2.5 5.01758 2.87333 5.01758 3.33333V5.315C5.01758 5.66583 5.12841 6.00833 5.33424 6.2925L8.01758 10L5.33424 13.7075C5.12841 13.9917 5.01758 14.3342 5.01758 14.685V16.6667C5.01758 17.1267 5.39091 17.5 5.85091 17.5H14.1484C14.6084 17.5 14.9817 17.1267 14.9817 16.6667V14.715C14.9817 14.345 14.8584 13.9858 14.6317 13.6933L11.7676 10L14.6326 6.30583C14.8592 6.01333 14.9826 5.65417 14.9826 5.28417V3.33333C14.9826 2.87333 14.6092 2.5 14.1492 2.5Z" stroke="#627293" stroke-width="1.5" stroke-linecap="round" stroke-linejoin="round"/>
</svg>
