<svg width="20" height="21" viewBox="0 0 20 21" fill="none" xmlns="http://www.w3.org/2000/svg">
<path d="M19.9991 10.7248V10.7198C19.9991 7.76079 18.7109 5.1034 16.6651 3.27598L16.6551 3.26765C16.6299 3.24041 16.6016 3.21609 16.5709 3.19515L16.5693 3.19432C14.7524 1.599 12.4158 0.721381 9.9979 0.726093C7.47135 0.726093 5.16478 1.66439 3.40652 3.21265L3.41735 3.20349C3.39616 3.21956 3.37662 3.2377 3.35902 3.25765V3.25848C2.30201 4.19443 1.45593 5.3443 0.876846 6.63191C0.297758 7.91953 -0.00112236 9.31549 3.16708e-06 10.7273C3.16708e-06 13.6855 1.28661 16.3429 3.33069 18.1712L3.34069 18.1795C3.36716 18.2095 3.39677 18.2366 3.42902 18.2603L3.43069 18.2612C5.24714 19.8541 7.58191 20.7304 9.9979 20.7261C12.4252 20.7298 14.77 19.8453 16.5901 18.2395L16.5793 18.2487C17.6546 17.3138 18.5166 16.1588 19.1069 14.8619C19.6972 13.565 20.002 12.1564 20.0008 10.7315V10.7257L19.9991 10.7248ZM16.281 17.2287C15.7856 16.828 15.2529 16.4759 14.6902 16.1771L14.636 16.1504C15.1468 14.678 15.4543 12.9806 15.4835 11.2148V11.2015H19.0342C18.9144 13.4859 17.9312 15.6394 16.2835 17.2262L16.281 17.2287ZM10.4762 15.9746C11.5453 16.0321 12.5445 16.2671 13.4661 16.6496L13.4061 16.6279C12.6678 18.3112 11.6287 19.4678 10.4762 19.7219V15.9746ZM10.4762 15.0213V11.2015H14.5327C14.5005 12.7833 14.2262 14.3508 13.7194 15.8496L13.7519 15.7404C12.7173 15.3152 11.617 15.0722 10.4995 15.0221L10.477 15.0213H10.4762ZM10.4762 10.2482V6.42835C11.6238 6.37597 12.7536 6.12475 13.8152 5.68588L13.7494 5.71004C14.2119 7.05915 14.496 8.61408 14.5327 10.2307V10.2482H10.4762ZM10.4762 5.47505V1.72938C11.6287 1.98354 12.6678 3.13516 13.4061 4.82342C12.5445 5.18173 11.5453 5.41589 10.5004 5.47422L10.4762 5.47505ZM12.8544 2.14186C13.8364 2.46938 14.7547 2.96321 15.5693 3.6018L15.5502 3.5868C15.181 3.87679 14.7669 4.15011 14.3302 4.3876L14.2836 4.41093C13.9307 3.57824 13.4456 2.80806 12.8469 2.1302L12.8544 2.13936V2.14186ZM9.52126 1.73188V5.47505C8.49338 5.42262 7.4821 5.19432 6.53139 4.80008L6.59138 4.82175C7.33302 3.13849 8.37047 1.98271 9.52292 1.72855L9.52126 1.73188ZM5.71475 4.40843C5.26305 4.16541 4.83265 3.8847 4.42814 3.5693L4.44814 3.5843C5.23905 2.96446 6.12867 2.48218 7.0797 2.1577L7.14303 2.13853C6.56006 2.79803 6.08505 3.54556 5.73559 4.35344L5.71475 4.4076V4.40843ZM9.52292 6.42751V10.2473H5.46643C5.5031 8.61325 5.78725 7.05832 6.28223 5.60005L6.24973 5.70921C7.2839 6.13375 8.38363 6.37647 9.50042 6.42668L9.52292 6.42751ZM9.52292 11.2006V15.0205C8.37533 15.0728 7.24555 15.3241 6.1839 15.7629L6.24973 15.7388C5.78725 14.3905 5.5031 12.8347 5.46643 11.2181V11.2006H9.52292ZM9.52292 15.9738V19.7194C8.37047 19.4653 7.33135 18.3137 6.59305 16.6254C7.45468 16.2671 8.4538 16.0338 9.49876 15.9754L9.52292 15.9746V15.9738ZM7.14803 19.307C6.16636 18.9804 5.24806 18.4877 4.43314 17.8503L4.45314 17.8653C4.82229 17.5754 5.23644 17.302 5.67309 17.0646L5.71975 17.0412C6.06964 17.8743 6.55477 18.6437 7.15553 19.3186L7.14803 19.3103V19.307ZM14.2844 17.0404C14.7677 17.3029 15.1818 17.5754 15.571 17.8795L15.551 17.8645C14.7601 18.4844 13.8705 18.9666 12.9194 19.2911L12.8561 19.3103C13.4391 18.6511 13.9141 17.9038 14.2636 17.0962L14.2844 17.0421V17.0404ZM19.0342 10.2482H15.4835C15.458 8.52405 15.1604 6.81475 14.6019 5.1834L14.636 5.29839C15.2247 4.98846 15.782 4.62233 16.3001 4.20511L16.2801 4.22011C17.9244 5.8009 18.908 7.94648 19.0325 10.224L19.0333 10.2473L19.0342 10.2482ZM3.71817 4.22094C4.19815 4.61092 4.7373 4.96841 5.30894 5.27256L5.3631 5.29923C4.85229 6.77166 4.54481 8.46909 4.51564 10.2348V10.2482H0.964128C1.08387 7.96378 2.06712 5.81021 3.71484 4.22344L3.71734 4.22094H3.71817ZM0.964961 11.2015H4.51564C4.54118 12.9256 4.83872 14.6349 5.39727 16.2663L5.3631 16.1513C4.7373 16.4837 4.19899 16.8412 3.69901 17.2445L3.71901 17.2295C2.07469 15.6488 1.09109 13.5032 0.966628 11.2256L0.965795 11.2023L0.964961 11.2015Z" fill="#999999"/>
</svg>
